# xmcd
#
# Track frame offsets:
#	150
#	11798
#	22848
#	33377
#	53212
#	64649
#	80347
#	94220
#	117075
#	124193
#	144749
#	159621
#	175775
#
# Disc length: 2609 seconds
#
# Revision: 1
# Processed by: cddbd v1.5.2PL0 Copyright (c) Steve Scherf et al.
# Submitted via: audiograbber 1.83.01
#
DISCID=a50a2f0d
DTITLE=Pappo's Blues - Nuestro Rock
DYEAR=2005
DGENRE=Blues
TTITLE0=Pappo's Blues - El tren de las 16
TTITLE1=Pappo's Blues - El viejo
TTITLE2=Pappo's Blues - Hombre suburbano
TTITLE3=Pappo's Blues - Algo ha cambiado
TTITLE4=Pappo's Blues - Fiesta cervezal
TTITLE5=Pappo's Blues - Llegará la paz
TTITLE6=Pappo's Blues - Con Elvira es otra cosa
TTITLE7=Pappo's Blues - Gato en la calle negra
TTITLE8=Pappo's Blues - Adiós Willy
TTITLE9=Pappo's Blues - Sucio y desprolijo
TTITLE10=Pappo's Blues - Abelardo el pollo
TTITLE11=Pappo's Blues - Insoluble
TTITLE12=Pappo's Blues - Especies
EXTD=
EXTT0=
EXTT1=
EXTT2=
EXTT3=
EXTT4=
EXTT5=
EXTT6=
EXTT7=
EXTT8=
EXTT9=
EXTT10=
EXTT11=
EXTT12=
PLAYORDER=
